<svg width="60" height="60" viewBox="0 0 60 60" fill="none" xmlns="http://www.w3.org/2000/svg">
<path fill-rule="evenodd" clip-rule="evenodd" d="M35.326 12.0899C32.1484 11.382 28.8692 11.7897 25.9197 13.2356C22.9785 14.6775 20.53 17.0683 18.8337 20.0464C18.2979 20.9872 17.8427 21.9765 17.4706 23.0005H14.248C12.8673 23.0005 11.748 24.1198 11.748 25.5005C11.748 26.8812 12.8673 28.0005 14.248 28.0005H16.3461C16.2822 28.6632 16.25 29.3309 16.25 30.0005C16.25 30.6701 16.2822 31.3378 16.3461 32.0005H14.248C12.8673 32.0005 11.748 33.1198 11.748 34.5005C11.748 35.8812 12.8673 37.0005 14.248 37.0005H17.4706C17.8427 38.0246 18.2979 39.0138 18.8337 39.9546C20.53 42.9328 22.9785 45.3235 25.9197 46.7654C28.8692 48.2114 32.1484 48.6191 35.326 47.9111C38.4975 47.2045 41.3596 45.4343 43.5796 42.8966C44.4887 41.8574 44.3833 40.278 43.3441 39.3689C42.3049 38.4598 40.7255 38.5653 39.8164 39.6045C38.2389 41.4077 36.2894 42.5739 34.2386 43.0308C32.1939 43.4863 30.0727 43.2329 28.1207 42.2759C26.1604 41.3149 24.4246 39.668 23.1784 37.48C23.0886 37.3223 23.0017 37.1624 22.9178 37.0005H32.248C33.6288 37.0005 34.748 35.8812 34.748 34.5005C34.748 33.1198 33.6288 32.0005 32.248 32.0005H21.3767C21.2928 31.3426 21.25 30.6742 21.25 30.0005C21.25 29.3268 21.2928 28.6585 21.3767 28.0005H32.248C33.6288 28.0005 34.748 26.8812 34.748 25.5005C34.748 24.1198 33.6288 23.0005 32.248 23.0005H22.9178C23.0017 22.8386 23.0886 22.6788 23.1784 22.521C24.4246 20.333 26.1604 18.6861 28.1207 17.7251C30.0727 16.7682 32.1939 16.5147 34.2386 16.9703C36.2894 17.4272 38.2389 18.5933 39.8164 20.3966C40.7255 21.4358 42.3049 21.5412 43.3441 20.6321C44.3833 19.723 44.4887 18.1437 43.5796 17.1045C41.3596 14.5667 38.4975 12.7965 35.326 12.0899Z" fill="#58FF87"/>
</svg>
