<svg width="67" height="18" viewBox="0 0 67 18" fill="none" xmlns="http://www.w3.org/2000/svg">
<path d="M1 9.38871C1 9.38871 4.90094 5.49986 6.5 5.49986C11 5.49986 11.0708 16.9999 13 16.9999C15.5 16.9999 17.625 6.35166 20.5 6.49986C23.375 6.64806 22.149 13.6359 26.5 13.9999C30.5242 14.3364 31.9844 1.07237 36 1.49986C38.7871 1.79658 37.2589 12.9145 40 13.4999C44.0282 14.3601 43.0082 8.37274 47 9.38871C50.6742 10.3238 49.7039 14.1264 53 15.9999C56.3994 17.9321 57.3709 16.4554 61 14.9999C65.677 13.124 65.7424 8.5324 66 3.49986" stroke="black" stroke-width="2" stroke-linecap="round"/>
</svg>
