<svg width="706" height="428" viewBox="0 0 706 428" fill="none" xmlns="http://www.w3.org/2000/svg">
<path d="M145.072 77.9912H367.339V124.415H198.009V176.517H347.968V220.102H198.009V292.743H370.846V339H145.072V77.9912ZM429.627 77.9912H567.229C587.268 77.9912 604.635 80.1621 619.33 84.5039C634.025 88.8457 646.216 95.1357 655.901 103.374C665.587 111.501 672.768 121.465 677.443 133.266C682.23 145.066 684.624 158.37 684.624 173.177C684.624 187.093 682.286 199.951 677.61 211.752C672.935 223.553 665.754 233.795 656.068 242.479C646.494 251.051 634.359 257.786 619.664 262.685C604.969 267.472 587.602 269.865 567.562 269.865L482.563 269.698V339H429.627V77.9912ZM568.564 223.942C578.584 223.942 587.323 222.773 594.782 220.436C602.353 217.986 608.643 214.591 613.652 210.249C618.773 205.796 622.559 200.452 625.008 194.218C627.568 187.872 628.849 180.858 628.849 173.177C628.849 157.702 623.783 145.679 613.652 137.106C603.633 128.423 588.604 124.081 568.564 124.081H482.563V223.942H568.564Z" fill="black"/>
<rect x="198" y="157" width="176" height="113" fill="white"/>
<path d="M27 303C27 303 103.029 208.233 172.5 186.5C249.179 162.511 297.026 216.704 377 209C505.025 196.666 676.5 72 676.5 72" stroke="white" stroke-width="37" stroke-linecap="round"/>
<path d="M33 339C33 339 109.029 244.233 178.5 222.5C255.179 198.511 303.026 252.704 383 245C511.025 232.666 682.5 108 682.5 108" stroke="white" stroke-width="37" stroke-linecap="round"/>
<path d="M27 323C27 323 103.029 228.233 172.5 206.5C249.179 182.511 297.026 236.704 377 229C505.025 216.666 676.5 92 676.5 92" stroke="black" stroke-width="37" stroke-linecap="round"/>
<circle cx="30.5" cy="318.5" r="15.5" fill="white" stroke="black" stroke-width="30"/>
</svg>
