<svg width="70" height="43" viewBox="0 0 70 43" fill="none" xmlns="http://www.w3.org/2000/svg">
<path d="M14.2356 7.88699H36.0468V12.4426H19.4303V17.5554H34.1459V21.8324H19.4303V28.9608H36.3909V33.5H14.2356V7.88699ZM42.1592 7.88699H55.6621C57.6286 7.88699 59.3328 8.10002 60.7749 8.52608C62.217 8.95215 63.4132 9.56939 64.3637 10.3778C65.3141 11.1753 66.0188 12.1531 66.4776 13.3111C66.9474 14.4691 67.1823 15.7746 67.1823 17.2276C67.1823 18.5932 66.9528 19.855 66.494 21.013C66.0352 22.1711 65.3305 23.1761 64.3801 24.0283C63.4405 24.8695 62.2497 25.5304 60.8077 26.0111C59.3656 26.4809 57.6614 26.7157 55.6949 26.7157L47.3539 26.6994V33.5H42.1592V7.88699ZM55.7932 22.2093C56.7765 22.2093 57.6341 22.0946 58.366 21.8652C59.1089 21.6248 59.7261 21.2916 60.2177 20.8656C60.7203 20.4286 61.0917 19.9042 61.3321 19.2924C61.5833 18.6697 61.709 17.9814 61.709 17.2276C61.709 15.7091 61.2119 14.5292 60.2177 13.688C59.2345 12.8359 57.7597 12.4098 55.7932 12.4098H47.3539V22.2093H55.7932Z" fill="white"/>
<rect x="19.4297" y="15.9067" width="17.271" height="11.0888" fill="#1E1E1E"/>
<path d="M2.64941 30.2337C2.64941 30.2337 10.1102 20.9341 16.9275 18.8014C24.4521 16.4474 29.1473 21.7654 36.9952 21.0094C49.5584 19.7991 66.3854 7.56543 66.3854 7.56543" stroke="#1E1E1E" stroke-width="3.63084" stroke-linecap="round"/>
<path d="M3.23828 33.7664C3.23828 33.7664 10.6991 24.4668 17.5163 22.3341C25.0409 19.9801 29.7362 25.2981 37.5841 24.5421C50.1473 23.3318 66.9743 11.0981 66.9743 11.0981" stroke="#1E1E1E" stroke-width="3.63084" stroke-linecap="round"/>
<path d="M2.64941 32.1961C2.64941 32.1961 10.1102 22.8965 16.9275 20.7638C24.4521 18.4098 29.1473 23.7278 36.9952 22.9718C49.5584 21.7615 66.3854 9.52783 66.3854 9.52783" stroke="white" stroke-width="3.63084" stroke-linecap="round"/>
<circle cx="2.99299" cy="31.7547" r="1.52103" fill="#1E1E1E" stroke="white" stroke-width="2.94393"/>
</svg>
