<svg width="24" height="25" viewBox="0 0 24 25" fill="none" xmlns="http://www.w3.org/2000/svg">
<path d="M23.7552 11.4556C23.5578 11.0719 23.2505 10.7557 22.8725 10.5475L22.8764 10.5451L11.3181 4.5L0.000976562 10.3177L0.0370978 10.3381L11.5161 16.3589C12.5816 16.9177 12.9959 18.2416 12.4422 19.3158C12.2674 19.654 12.0068 19.9404 11.6866 20.1463L11.6715 20.1659L11.6616 20.1732L23.2449 14.1177C23.9915 13.4714 24.2291 12.373 23.7552 11.4556Z" fill="#EBECED"/>
<path d="M11.5161 16.3588L0 10.3184V15.2614L9.51151 20.2505C9.82005 20.4128 10.1634 20.4977 10.512 20.498C10.9113 20.4976 11.3028 20.3871 11.6433 20.1786C11.9838 19.97 12.2603 19.6716 12.4422 19.3162C12.9956 18.2415 12.5813 16.9176 11.5161 16.3588Z" fill="#BDC3C7"/>
<path d="M4.45369 9.90768L5.56254 10.4665L3.69878 10.288L3.12012 10.5794L5.12497 11.5889L5.70727 11.2956L4.60691 10.7411L6.4583 10.9179L7.04206 10.6238L5.03721 9.61435L4.45369 9.90768ZM7.61927 9.87544L7.22388 9.67665L8.188 9.19132L7.77878 8.98501L6.81466 9.47035L6.4966 9.3101L7.53539 8.78695L7.10727 8.5712L5.44715 9.40707L7.452 10.4165L9.14242 9.56513L8.68836 9.33677L7.61927 9.87544ZM9.48448 7.37386L10.3931 8.04562L8.96133 7.63762L8.37515 7.93289L9.18775 8.65435L7.85369 8.19568L7.26533 8.49192L9.71551 9.27689L10.323 8.97095L9.41103 8.15883L11.0246 8.6175L11.6321 8.31132L10.0697 7.07932L9.48448 7.37386ZM13.5839 7.02986C13.5465 6.93944 13.4636 6.8621 13.3349 6.79738C13.2258 6.74186 13.1 6.70598 12.9584 6.68829C12.8164 6.67059 12.6573 6.67617 12.4799 6.70501C12.3029 6.73386 12.0503 6.8015 11.7211 6.90865C11.589 6.95253 11.4947 6.97483 11.4394 6.97629C11.3839 6.97871 11.3402 6.97144 11.3082 6.95544C11.2641 6.93338 11.2455 6.90574 11.2515 6.8718C11.2576 6.83786 11.2968 6.80295 11.3684 6.76635C11.4514 6.7235 11.5427 6.6988 11.636 6.69386C11.7264 6.68926 11.8246 6.70623 11.9305 6.74356L12.4806 6.43253C12.2471 6.34065 12.0159 6.30477 11.7868 6.32465C11.5567 6.34429 11.3138 6.41871 11.0576 6.54768C10.8486 6.65289 10.7102 6.74865 10.643 6.83568C10.5759 6.92223 10.5577 7.00392 10.5897 7.08004C10.6217 7.15617 10.6888 7.22065 10.7921 7.27229C10.9487 7.35132 11.1361 7.3872 11.3536 7.37895C11.5708 7.37168 11.8455 7.31471 12.1781 7.20877C12.3802 7.14356 12.525 7.10986 12.6113 7.10792C12.6976 7.10526 12.7679 7.11738 12.8188 7.14332C12.8741 7.17071 12.8973 7.20732 12.8913 7.25217C12.8855 7.29701 12.8372 7.34162 12.7492 7.38647C12.6267 7.44723 12.4901 7.47362 12.3538 7.46283C12.2644 7.45726 12.1662 7.4335 12.0568 7.3918L11.5048 7.7072C11.724 7.80053 11.9652 7.84683 12.2275 7.84683C12.4898 7.84683 12.7919 7.76101 13.1325 7.58938C13.3269 7.49168 13.4595 7.39641 13.531 7.3038C13.6042 7.21216 13.6212 7.12029 13.5839 7.02986Z" fill="#7E8B8C"/>
<path d="M15.5695 8.1958L6.7373 12.6438L7.38361 12.9694L16.2163 8.52113L15.5695 8.1958ZM8.24518 13.4031L10.1841 14.3791L12.7688 13.0775L10.8299 12.1013L8.24518 13.4031ZM12.5535 11.884L17.7232 9.28065L17.0769 8.95507L11.9072 11.5587L12.5535 11.884ZM18.3695 9.60598L13.1996 12.2096L13.8459 12.5354L19.0159 9.9318L18.3695 9.60598Z" fill="#BDC2C6"/>
<path d="M10.1886 17.8404L0 12.4023V12.958L9.96921 18.2782C10.0028 18.2963 10.0404 18.3058 10.0785 18.3059C10.1644 18.3059 10.2475 18.2574 10.2902 18.1728C10.3195 18.115 10.3253 18.0481 10.3063 17.9861C10.2874 17.9242 10.2452 17.8719 10.1886 17.8404Z" fill="#7E8B8C"/>
</svg>
