<svg width="44" height="45" viewBox="0 0 44 45" fill="none" xmlns="http://www.w3.org/2000/svg">
<path fill-rule="evenodd" clip-rule="evenodd" d="M2.29199 29.8335C2.29199 29.0741 2.90761 28.4585 3.66699 28.4585H40.3337C41.093 28.4585 41.7087 29.0741 41.7087 29.8335C41.7087 30.5929 41.093 31.2085 40.3337 31.2085H3.66699C2.90761 31.2085 2.29199 30.5929 2.29199 29.8335ZM13.292 40.8335C13.292 40.0741 13.9076 39.4585 14.667 39.4585H29.3337C30.093 39.4585 30.7087 40.0741 30.7087 40.8335C30.7087 41.5929 30.093 42.2085 29.3337 42.2085H14.667C13.9076 42.2085 13.292 41.5929 13.292 40.8335Z" fill="black"/>
<path opacity="0.5" d="M7.79199 35.3335C7.79199 34.5741 8.40761 33.9585 9.16699 33.9585H34.8337C35.593 33.9585 36.2087 34.5741 36.2087 35.3335C36.2087 36.0929 35.593 36.7085 34.8337 36.7085H9.16699C8.40761 36.7085 7.79199 36.0929 7.79199 35.3335Z" fill="black"/>
<path opacity="0.5" d="M22.0003 4.1665C11.8751 4.1665 3.66699 12.3746 3.66699 22.4998C3.66699 25.1072 4.21131 27.5875 5.19249 29.8332H38.8081C39.7893 27.5875 40.3337 25.1072 40.3337 22.4998C40.3337 21.6516 39.0622 21.5113 38.6235 22.2373C36.5366 25.6909 32.7464 27.9998 28.417 27.9998C21.8355 27.9998 16.5003 22.6647 16.5003 16.0832C16.5003 11.7537 18.8092 7.96343 22.2629 5.87656C22.9889 5.43787 22.8486 4.1665 22.0003 4.1665Z" fill="black"/>
<path d="M36.4834 4.72969C36.1884 3.97878 35.1295 3.97878 34.8345 4.72969L34.0454 6.7377C33.9554 6.96696 33.7747 7.14844 33.5462 7.23886L31.5455 8.03081C30.7973 8.32696 30.7973 9.38967 31.5455 9.68583L33.5462 10.4778C33.7747 10.5682 33.9554 10.7497 34.0454 10.9789L34.8345 12.9869C35.1295 13.7379 36.1884 13.7379 36.4834 12.987L37.2725 10.9789C37.3625 10.7497 37.5433 10.5682 37.7717 10.4778L39.7724 9.68583C40.5206 9.38967 40.5206 8.32696 39.7724 8.03081L37.7717 7.23886C37.5433 7.14844 37.3625 6.96696 37.2725 6.7377L36.4834 4.72969Z" fill="black"/>
<path d="M29.3936 15.4045C29.0984 14.6536 28.0396 14.6536 27.7445 15.4045L27.4568 16.1366C27.3668 16.3659 27.186 16.5473 26.9576 16.6378L26.2281 16.9265C25.4799 17.2227 25.4799 18.2854 26.2281 18.5815L26.9576 18.8703C27.186 18.9607 27.3668 19.1422 27.4568 19.3715L27.7445 20.1036C28.0396 20.8545 29.0984 20.8545 29.3936 20.1036L29.6812 19.3715C29.7712 19.1422 29.952 18.9607 30.1804 18.8703L30.9099 18.5815C31.6581 18.2854 31.6581 17.2227 30.9099 16.9265L30.1804 16.6378C29.952 16.5473 29.7712 16.3659 29.6812 16.1366L29.3936 15.4045Z" fill="black"/>
</svg>
