<svg width="40" height="38" viewBox="0 0 40 38" fill="none" xmlns="http://www.w3.org/2000/svg">
<path d="M38.5 16.5C38.5 26.5 38 26 20.5 26.5C1.5 26 1.5 25.6127 1.5 16.5C1.5 7.3873 9.78273 0 20 0C30.2173 0 38.5 7.3873 38.5 16.5Z" fill="#FFB800"/>
<path opacity="0.5" d="M5.94824 31C5.94824 30.2406 6.56385 29.625 7.32324 29.625H32.9899C33.7493 29.625 34.3649 30.2406 34.3649 31C34.3649 31.7594 33.7493 32.375 32.9899 32.375H7.32324C6.56385 32.375 5.94824 31.7594 5.94824 31Z" fill="#00A3FF"/>
<path fill-rule="evenodd" clip-rule="evenodd" d="M0 25.375C0 24.6156 0.615615 24 1.375 24H38.0417C38.801 24 39.4167 24.6156 39.4167 25.375C39.4167 26.1344 38.801 26.75 38.0417 26.75H1.375C0.615615 26.75 0 26.1344 0 25.375ZM11 36.375C11 35.6156 11.6156 35 12.375 35H27.0417C27.801 35 28.4167 35.6156 28.4167 36.375C28.4167 37.1344 27.801 37.75 27.0417 37.75H12.375C11.6156 37.75 11 37.1344 11 36.375Z" fill="#00C2FF"/>
</svg>
