<svg width="24" height="25" viewBox="0 0 24 25" fill="none" xmlns="http://www.w3.org/2000/svg">
<path d="M21 5H3C2.17266 5 1.5 5.67266 1.5 6.5V18.5C1.5 19.3273 2.17266 20 3 20H16.5141L21.0047 22.993L21 20C21.8273 20 22.5 19.3273 22.5 18.5V6.5C22.5 5.67266 21.8273 5 21 5Z" fill="#CCCCCC"/>
<path d="M15 12.5C15 9.56094 13.793 6.90547 11.8477 5H3C2.17266 5 1.5 5.67266 1.5 6.5V18.5C1.5 19.3273 2.17266 20 3 20H11.8477C13.793 18.0945 15 15.4391 15 12.5Z" fill="#CCCCCC"/>
<path d="M4.5 12.5C4.5 12.8978 4.65804 13.2794 4.93934 13.5607C5.22064 13.842 5.60218 14 6 14C6.39782 14 6.77936 13.842 7.06066 13.5607C7.34196 13.2794 7.5 12.8978 7.5 12.5C7.5 12.1022 7.34196 11.7206 7.06066 11.4393C6.77936 11.158 6.39782 11 6 11C5.60218 11 5.22064 11.158 4.93934 11.4393C4.65804 11.7206 4.5 12.1022 4.5 12.5Z" fill="white"/>
<path d="M10.5 12.5C10.5 12.8978 10.658 13.2794 10.9393 13.5607C11.2206 13.842 11.6022 14 12 14C12.3978 14 12.7794 13.842 13.0607 13.5607C13.342 13.2794 13.5 12.8978 13.5 12.5C13.5 12.1022 13.342 11.7206 13.0607 11.4393C12.7794 11.158 12.3978 11 12 11C11.6022 11 11.2206 11.158 10.9393 11.4393C10.658 11.7206 10.5 12.1022 10.5 12.5Z" fill="white"/>
<path d="M16.5 12.5C16.5 12.8978 16.658 13.2794 16.9393 13.5607C17.2206 13.842 17.6022 14 18 14C18.3978 14 18.7794 13.842 19.0607 13.5607C19.342 13.2794 19.5 12.8978 19.5 12.5C19.5 12.1022 19.342 11.7206 19.0607 11.4393C18.7794 11.158 18.3978 11 18 11C17.6022 11 17.2206 11.158 16.9393 11.4393C16.658 11.7206 16.5 12.1022 16.5 12.5Z" fill="white"/>
</svg>
