<svg width="30" height="25" viewBox="0 0 30 25" fill="none" xmlns="http://www.w3.org/2000/svg">
<path d="M27.4556 0.220773C23.4979 1.87365 6.52795 8.96164 1.83916 10.8935C-1.30535 12.1308 0.535489 13.291 0.535489 13.291C0.535489 13.291 3.21971 14.219 5.52084 14.9151C7.82165 15.6111 9.04877 14.8379 9.04877 14.8379L19.8629 7.49072C23.6976 4.86123 22.7774 7.02658 21.8568 7.95486C19.8629 9.96582 16.5649 13.1363 13.8038 15.6886C12.5767 16.7713 13.1901 17.6993 13.7273 18.1634C15.7212 19.8649 21.1669 23.3452 21.4734 23.5771C23.0936 24.7337 26.2806 26.3986 26.7653 22.8811L28.6827 10.7391C29.2964 6.64028 29.9098 2.85059 29.9864 1.76792C30.2167 -0.861902 27.4556 0.220773 27.4556 0.220773Z" fill="#1B92D1"/>
</svg>
